<svg width="83" height="87" viewBox="0 0 83 87" fill="none" xmlns="http://www.w3.org/2000/svg">
<path d="M25.0938 68L14.0938 32.1562H13.8125C13.8542 33.0104 13.9167 34.3021 14 36.0312C14.1042 37.7396 14.1979 39.5625 14.2812 41.5C14.3646 43.4375 14.4062 45.1875 14.4062 46.75V68H5.75V22.3125H18.9375L29.75 57.25H29.9375L41.4062 22.3125H54.5938V68H45.5625V46.375C45.5625 44.9375 45.5833 43.2812 45.625 41.4062C45.6875 39.5312 45.7604 37.75 45.8438 36.0625C45.9271 34.3542 45.9896 33.0729 46.0312 32.2188H45.75L33.9688 68H25.0938Z" fill="#F4FBF5"/>
<path d="M82.5 68H71.5L59.5312 48.75L55.4375 51.6875V68H45.75V22.3125H55.4375V43.2188C56.0833 42.3229 56.7188 41.4271 57.3438 40.5312C57.9688 39.6354 58.6042 38.7396 59.25 37.8438L71.625 22.3125H82.375L66.4375 42.5312L82.5 68Z" fill="#F4FBF5"/>
</svg>
